<?xml version="1.0" encoding="UTF-8" standalone="no"?>
<svg xmlns:dc="http://purl.org/dc/elements/1.1/" xmlns:cc="http://creativecommons.org/ns#" xmlns:rdf="http://www.w3.org/1999/02/22-rdf-syntax-ns#" xmlns:svg="http://www.w3.org/2000/svg" xmlns="http://www.w3.org/2000/svg" width="720" height="358" version="1.1" id="svg27">
  <defs id="defs31"/>
  <path id="path1" style="fill:#bd0000" d="m 673.17578,0.34960938 -0.15234,0.0117187 C 660.58468,1.2583707 644.01653,4.9766923 628.3125,11.283203 H 539.91602 114.62305 80.892578 c 2e-5,0 -59.310547,258.767577 -59.310547,258.767577 h 0.05469 274.380859 111.35351 c 8.18871,4.77878 18.13817,7.56878 29.25,8.53711 l 0.18555,0.0156 h 19.41602 l 0.16601,-0.0137 c 6.2076,-0.48413 12.68443,-1.38394 19.37891,-2.69336 11.54209,-2.25681 23.71841,-5.71068 36.33398,-10.31054 9.54953,-3.48202 19.35432,-7.59813 29.29883,-12.37891 l 0.004,-0.002 c 21.6417,-10.37462 43.95204,-23.73256 65.83398,-39.8418 7.21048,-5.30371 14.12756,-10.74325 20.76563,-16.27344 l 0.002,-0.002 c 6.08772,-5.06541 11.93093,-10.21081 17.51367,-15.41601 l 0.0254,-0.0234 0.0254,-0.0254 c 15.68304,-15.1138 27.59687,-30.48012 34.50391,-44.36524 3.59772,-7.23101 5.85407,-14.07198 6.41797,-20.42187 0.56381,-6.34892 -0.65812,-12.35856 -4.22461,-17.072268 l -0.002,-0.002 c -2.61575,-3.460717 -6.28889,-5.750857 -10.5039,-7.259766 13.72831,-11.273226 24.90342,-23.311808 32.23242,-35.091797 8.55925,-13.757381 12.37711,-27.391992 8.19922,-38.86914 v -0.002 C 709.52062,11.166563 703.46964,5.6256188 695.51367,2.7558594 h -0.002 l -0.002,-0.00195 c -3.53373,-1.271171 -7.39945,-2.03996693 -11.52529,-2.38867502 l -0.17774,-0.015625 z m 10.20313,8.52734372 c 3.48278,0.044736 6.58007,0.9413833 9.24609,1.9003909 6.05839,2.18638 9.78367,5.787073 11.55273,10.667968 l 0.002,0.0039 v 0.0039 c 2.81302,7.722212 0.38015,18.909702 -7.42383,31.453125 -7.80398,12.543423 -20.705,26.141255 -37.08984,38.435547 l -9.04493,6.787109 11.27539,0.873047 c 6.66947,0.516719 11.06122,2.58176 13.57032,5.90235 l 0.002,0.002 c 2.05657,2.71732 2.96244,6.32027 2.53125,11.17578 -0.43119,4.85551 -2.29375,10.81107 -5.56055,17.37695 -6.26998,12.60447 -17.62286,27.40542 -32.75781,41.9961 -5.45672,5.08693 -11.17106,10.12117 -17.13086,15.08008 l -0.002,0.002 c -6.5136,5.42656 -13.29542,10.76161 -20.36133,15.95898 h -0.002 c -21.46702,15.8039 -43.34029,28.89228 -64.47071,39.02149 l -0.004,0.002 h -0.002 c -9.69602,4.66148 -19.24385,8.66967 -28.52734,12.05469 -12.24684,4.46542 -24.00901,7.79609 -35.05078,9.95508 -6.36192,1.24437 -12.47953,2.09069 -18.29688,2.54882 h -18.57031 c -0.0873,-0.008 -0.1707,-0.0194 -0.25781,-0.0273 h 1.7168 c -17.00107,-1.48353 -30.42439,-7.45273 -38.42188,-18.33203 -1.48353,-2.01219 -2.70891,-4.17932 -3.7832,-6.44727 -0.68207,-1.6711 -1.32272,-3.35728 -1.9707,-5.0625 -1.70525,-5.42261 -2.38506,-11.43993 -2.07813,-17.85156 0.85262,-17.87074 9.23714,-39.12871 23.76563,-61.38867 15.43225,-23.65656 37.79939,-48.45043 65.49218,-71.458987 6.20699,-5.15319 12.62517,-10.24235 19.34375,-15.1875 8.30441,-6.10979 16.67228,-11.735727 25.04492,-16.998047 30.84745,-19.42077 61.61827,-33.00941 88.88477,-39.91211 -26.05577,8.50051 -55.32749,22.930312 -84.24805,42.576172 -1.04016,0.70255 -2.06865,1.42149 -3.09179,2.13086 -16.04613,11.11805 -30.5827,22.926962 -43.26954,34.851562 -40.82303,38.38457 -62.40072,78.15909 -52.5957,101.46094 0.69916,1.6029 1.53192,3.13259 2.50391,4.58203 10.53825,15.50047 36.65555,18.18086 69.7539,9.85938 2.25089,-0.56275 4.50317,-1.2002 6.82227,-1.86524 10.57238,-3.05237 21.79602,-7.17431 33.35742,-12.25586 2.77949,-1.22777 5.58926,-2.49076 8.41992,-3.83789 0.28988,-0.13641 0.56364,-0.27231 0.85352,-0.42578 36.49173,-18.13162 64.53488,-38.99421 70.60547,-51.5293 1.33008,-2.72662 1.64986,-5.05213 0.74609,-6.875 -4.33124,-8.78188 -34.63814,-2.84795 -71.35156,13.05664 -2.95003,1.2789 -5.93489,2.59441 -8.95313,3.9961 2.45552,-2.27986 5.01213,-4.56966 7.6211,-6.82227 4.16075,-3.58438 8.46765,-7.08919 13.05469,-10.55078 7.179,-5.43627 14.43715,-10.3502 21.58203,-14.70703 33.45643,-25.240672 50.36964,-49.116255 46.83984,-57.976565 -0.66505,-1.66943 -2.08098,-2.818438 -4.26367,-3.517578 -6.97438,-2.21847 -19.70356,0.429268 -35.16992,6.767578 -12.75504,5.23164 -27.40534,12.989804 -42.25782,22.646484 l -2.02343,1.332032 c 2e-5,0 -0.37305,0.214844 -0.37305,0.214844 2e-5,2e-5 -7.14062,4.742187 -7.14062,4.742187 -2e-5,-10e-6 4.10156,-7.513672 4.10156,-7.513672 6.08765,-11.14364 16.00381,-22.771395 28.34961,-33.572265 9.05473,-7.89689 19.40005,-15.337117 30.53515,-21.847657 4.21191,-2.46573 8.41702,-4.755292 12.62891,-6.820312 4.31422,-2.10769 8.62989,-3.980738 12.8418,-5.648438 C 651.40342,12.78462 663.35928,8.6198018 683.37891,8.8769531 Z M 386.87305,11.65625 c -1.67109,25.50496 3.27378,62.861801 14.49414,104.33789 1.99509,7.38021 4.16736,14.89151 6.55469,22.48828 1.48356,4.69104 3.01324,9.30936 4.58203,13.85547 -0.9208,1.35396 -1.84714,2.6983 -2.7168,4.04883 -13.99985,21.45508 -22.18278,41.73129 -24.24609,59.36328 -5.91714,-19.81468 -10.37276,-41.51757 -12.89649,-64.53125 -0.71619,-6.5941 -1.27719,-13.11431 -1.65234,-19.55664 -2.76247,-46.796391 3.34747,-89.21812 15.88086,-120.00586 z M 107.48242,44.855469 c 0.31934,-0.0075 0.63395,0 0.95899,0 0,-2e-5 63.04101,0 63.04101,0 5.38851,-2e-5 9.55441,1.009599 12.52149,3.037109 2.95002,2.03946 4.05658,4.677499 3.35742,7.886719 2e-5,2e-5 -7.51367,33.943359 -7.51367,33.943359 0,3e-5 -22.22071,0 -22.22071,0 2e-5,3e-5 7.30078,-33.037109 7.30078,-33.037109 h -55.63281 c -2e-5,0 -20.089842,90.802733 -20.089842,90.802733 2e-5,0 -7.246094,32.87891 -7.246094,32.87891 0,3e-5 55.578126,0 55.578126,0 0,3e-5 0.0547,-0.21289 0.0547,-0.21289 0,2e-5 11.13672,-50.30469 11.13672,-50.30469 0,-2e-5 -26.11133,0 -26.11133,0 0,-2e-5 2.5039,-11.35156 2.5039,-11.35156 -1e-5,-2e-5 48.33203,0 48.33203,0 0,-2e-5 -13.85351,62.77539 -13.85351,62.77539 -0.18757,0.89352 -0.51561,1.70245 -0.95899,2.5039 -1.14249,2.08037 -3.1365,3.86164 -5.91601,5.32813 -3.85378,2.02923 -8.46697,3.03711 -13.85547,3.03711 0,2e-5 -62.986327,0 -62.986328,0 -5.388524,2e-5 -9.554404,-1.0079 -12.521484,-3.03711 -2.95001,-2.0292 -4.073622,-4.6194 -3.357422,-7.83203 1e-5,-2e-5 27.761719,-125.494143 27.761719,-125.494143 0.71618,-3.20921 2.951426,-5.847279 6.822266,-7.886719 0.13642,-0.07331 0.289371,-0.09025 0.425781,-0.160156 3.53302,-1.7697 7.678678,-2.763823 12.468748,-2.876953 z m 98.79688,0 c -2e-5,-2e-5 79.3457,0 79.3457,0 5.32031,-2e-5 9.50362,1.009599 12.4707,3.037109 2.98417,2.03946 4.12637,4.677499 3.41016,7.886719 2e-5,2e-5 -14.81445,66.929683 -14.81445,66.929683 -0.69912,3.18874 -2.9871,5.79113 -6.875,7.83399 -3.8879,2.04966 -8.46344,3.08984 -13.80079,3.08984 h -57.6582 l -11.13672,50.25 c 0,2e-5 -1.8125,8.25977 -1.8125,8.25977 1e-5,2e-5 -21.74218,0 -21.74218,0 0,2e-5 1.65234,-7.45899 1.65234,-7.45899 0,2e-5 30.96094,-139.828121 30.96094,-139.828121 z m 109.61328,0 c -1e-5,-2e-5 21.74219,0 21.74219,0 2e-5,-2e-5 -24.61915,111.210941 -24.61915,111.210941 3e-5,2e-5 -5.38281,24.30078 -5.38281,24.30078 0,3e-5 52.00977,0 52.00977,0 0.54568,3.98854 1.18314,7.90453 1.86523,11.77539 -2e-5,2e-5 -78.22656,0 -78.22656,0 2e-5,2e-5 6.18164,-27.92188 6.18164,-27.92188 2e-5,0 26.42969,-119.365231 26.42969,-119.365231 z m -90.48242,11.830078 c 2e-5,0 -14.44141,65.117183 -14.44141,65.117183 0,-2e-5 54.19336,0 54.19336,0 -10e-6,-2e-5 14.38867,-65.117183 14.38867,-65.117183 z M 179.84766,202.375 c 0.21267,-0.007 0.42639,0 0.64062,0 2.52373,2e-5 4.72657,0.44375 6.5,1.2793 1.8928,0.88671 3.24775,2.20403 3.99805,3.94336 0.73325,1.68819 0.92346,3.60374 0.53125,5.70117 0,1e-5 -0.1582,0.79883 -0.1582,0.79883 1e-5,-3e-5 -6.23633,0 -6.23633,0 -2e-5,-3e-5 0.0547,-0.7461 0.0547,-0.7461 0.16118,-1.46543 -0.0203,-2.61751 -0.58593,-3.41015 -0.0737,-0.0994 -0.18167,-0.23122 -0.26758,-0.32032 -0.14068,-0.14363 -0.35231,-0.30727 -0.5332,-0.42578 -0.87238,-0.5495 -2.23651,-0.85156 -3.9961,-0.85156 -2.33615,2e-5 -4.08174,0.40609 -5.27539,1.22461 -1.15956,0.80146 -1.89213,1.6972 -2.13086,2.77148 -0.23875,1.09134 0.15293,1.66377 0.42578,1.97071 0.008,0.008 0.0423,0.0452 0.0527,0.0547 0.34552,0.29445 1.54522,0.98492 5.27539,1.86524 3.37632,0.81851 5.61314,1.55266 6.875,2.18359 1.90987,0.97196 3.24421,2.23145 3.94336,3.78321 0.69911,1.53472 0.85208,3.33143 0.42578,5.27539 -0.4263,1.89279 -1.39183,3.63837 -2.82422,5.27539 -1.41532,1.637 -3.21717,2.93413 -5.38281,3.83789 -2.1486,0.88672 -4.50436,1.38476 -6.92578,1.38476 -3.0694,-1e-5 -5.53403,-0.46394 -7.46094,-1.38476 -2.01217,-0.95491 -3.46381,-2.46282 -4.31641,-4.42383 -0.81851,-1.90986 -0.99361,-4.07703 -0.5332,-6.44727 0,-3e-5 0.16016,-0.74609 0.16016,-0.74609 h 6.1289 l -0.0547,0.74609 c -0.15348,1.41532 -0.002,2.55755 0.37305,3.41016 0.35809,0.81853 1.04148,1.49676 2.13281,2.02539 1.15954,0.5627 2.60765,0.85156 4.26172,0.85156 1.48355,-1e-5 2.84008,-0.24806 4.05078,-0.6914 1.19365,-0.4263 2.14213,-0.98889 2.82422,-1.70508 0.66502,-0.71622 1.05409,-1.47445 1.22461,-2.29297 0.17052,-0.73324 0.13169,-1.3517 -0.1582,-1.86328 -0.32399,-0.54564 -0.96659,-1.0302 -1.97266,-1.43945 0,-1e-5 -5.22265,-1.54493 -5.22265,-1.54493 -2.91592,-0.73323 -4.87899,-1.43367 -6.02149,-2.13281 -1.55177,-0.92081 -2.67022,-2.10029 -3.25,-3.51562 -0.57977,-1.39831 -0.64077,-2.94855 -0.26562,-4.63672 0.3922,-1.80753 1.26225,-3.5278 2.60937,-5.0625 1.3642,-1.55177 3.12523,-2.76886 5.22266,-3.57031 1.85443,-0.69541 3.8056,-1.10275 5.86133,-1.17188 z m 55.95312,0.10547 c 0.33725,-0.0263 0.65361,0 1.01172,0 1e-5,0 3.83789,0.42773 3.83789,0.42773 l 1.2793,0.10547 c 2e-5,1e-5 -1.86524,4.74219 -1.86524,4.74219 l -0.37304,0.74609 c 0,-2e-5 -2.93164,-0.26562 -2.93164,-0.26562 -0.86541,0 -1.50072,0.133 -1.91797,0.42578 -0.0277,0.0209 -0.0818,0.085 -0.10742,0.10742 -0.0559,0.049 -0.14966,0.13431 -0.2129,0.21289 -0.25659,0.33651 -0.56862,0.9383 -0.79882,2.02539 -2e-5,0 -0.11058,0.45935 -0.21289,0.85157 1.34713,1e-5 4.58203,0 4.58203,0 0,1e-5 -1.17188,5.27539 -1.17188,5.27539 0,-1e-5 -3.35112,0 -4.47656,0 -0.34106,1.53469 -4.5293,20.30273 -4.5293,20.30273 -2e-5,-2e-5 -6.18164,0 -6.18164,0 -2e-5,-2e-5 4.01773,-18.03478 4.5293,-20.30273 -1.04021,-1e-5 -3.57031,0 -3.57031,0 0,-1e-5 1.17382,-5.2754 1.17382,-5.27539 1e-5,1e-5 2.54366,0 3.51563,0 0.17052,-0.73324 0.42773,-1.65235 0.42773,-1.65235 0.37516,-1.70522 0.76579,-2.93059 1.27735,-3.7832 0.69917,-1.17659 1.68683,-2.16077 2.93164,-2.87695 1.02527,-0.59576 2.32172,-0.95259 3.7832,-1.06641 z m 14.76172,0.26758 c -2e-5,-1e-5 -1.61614,7.26969 -2.02539,9.11133 1.19364,1e-5 3.99609,0 3.99609,0 0,1e-5 -1.17187,5.27539 -1.17187,5.27539 -2e-5,-1e-5 -2.93887,0 -3.9961,0 -0.32401,1.46647 -2.8789,12.84375 -2.8789,12.84375 2e-5,-2e-5 -0.21289,1.36561 -0.21289,1.75781 2.8e-4,0.0131 -0.001,0.0431 0,0.0527 8.4e-4,0.004 -0.001,0.0514 0,0.0547 0.002,0.003 0.0506,-0.002 0.0527,0 0,-2e-5 0.64063,0.0527 0.64063,0.0527 l 2.92968,-0.21289 -0.31836,4.74219 c 3e-5,0 0.0527,0.85352 0.0527,0.85352 -2e-5,-2e-5 -4.20899,0.47851 -4.20898,0.47851 -1.6711,-2e-5 -2.8965,-0.27179 -3.78321,-0.85156 -0.93785,-0.61392 -1.48535,-1.42805 -1.70703,-2.45117 -0.0341,-0.18759 -0.10547,-0.46133 -0.10547,-0.85352 0,-0.76736 0.14416,-2.06551 0.63867,-4.3164 2e-5,2e-5 2.24128,-10.03591 2.71875,-12.15039 -0.80143,-10e-6 -2.93164,0 -2.93164,0 2e-5,-10e-6 1.17188,-5.27539 1.17188,-5.27539 -2e-5,1e-5 2.07902,0 2.93164,0 0.27281,-1.22775 1.22656,-5.43555 1.22656,-5.43555 0,2e-5 4.95508,-2.61133 4.95508,-2.61133 -1e-5,2e-5 2.02539,-1.06445 2.02539,-1.06445 z m -196.367188,0.21289 h 23.978516 l -1.332031,5.96875 c 0,2e-5 -15.99655,0 -17.53125,0 -0.27282,1.21073 -1.365613,6.11329 -1.757813,7.88672 H 72.738281 L 71.40625,222.7832 H 56.220703 c -0.32399,1.48355 -3.251953,14.6543 -3.251953,14.6543 2e-5,-2e-5 -6.447266,0 -6.447266,0 10e-6,-2e-5 7.673828,-34.47656 7.673828,-34.47656 z m 32.132813,8.41992 c 0.24067,-0.0296 0.503634,0 0.746094,0 1.5347,0 2.952226,0.46553 4.316406,1.4375 0,2e-5 0.851563,0.58594 0.851563,0.58594 l -3.302735,5.43554 c 0,-2e-5 -0.90625,-0.63867 -0.90625,-0.63867 -0.66504,-0.42629 -1.382512,-0.63867 -2.132812,-0.63867 -0.64799,2e-5 -1.249402,0.22941 -1.863282,0.63867 -0.64797,0.4263 -1.190369,0.99045 -1.599609,1.75781 -0.7162,1.31304 -1.239566,2.78524 -1.597656,4.3711 0,1e-5 -2.878907,13.10742 -2.878906,13.10742 0,-2e-5 -6.181641,0 -6.181641,0 0,-2e-5 5.703125,-25.57812 5.703125,-25.57812 2e-5,1e-5 5.753906,0 5.753906,0 0,1e-5 -0.197415,0.77652 -0.265625,1.0664 0.27284,-0.20461 0.560088,-0.4852 0.798828,-0.63867 0.82597,-0.4929 1.699144,-0.80071 2.558594,-0.90625 z m 18.330075,0 c 0.37219,-0.0282 0.73867,0 1.11914,0 3.47866,0 6.11172,1.21868 7.83399,3.62305 1.07428,1.55174 1.65234,3.47086 1.65234,5.75586 0,1.26185 -0.15649,2.61802 -0.48047,4.10156 l -0.47851,1.86523 c 0,-2e-5 -15.633719,0 -17.373049,0 -0.0341,0.35808 -0.05273,0.74242 -0.05273,1.06641 0,1.33009 0.271783,2.37717 0.851563,3.14453 0.2755,0.37513 0.596647,0.71279 0.960937,0.95898 0.68678,0.44789 1.571589,0.69336 2.609369,0.69336 1.26188,-2e-5 2.37192,-0.34864 3.41211,-1.01367 0.98905,-0.63093 1.93398,-1.63883 2.76953,-3.03711 0,-3e-5 6.60742,0 6.60742,0 0,-3e-5 -0.58593,1.2793 -0.58593,1.2793 -1.26187,2.55785 -3.02097,4.55341 -5.22071,5.96875 -2.19973,1.41533 -4.82963,2.18359 -7.72851,2.18359 -3.768538,-1e-5 -6.573167,-1.21868 -8.312497,-3.62304 -1.722261,-2.35323 -2.092695,-5.60669 -1.171876,-9.69922 0.92083,-4.16073 2.758357,-7.48558 5.435547,-9.80469 2.39958,-2.08062 5.121696,-3.23385 8.152336,-3.46289 z m 27.76368,0 c 0.37217,-0.0282 0.73867,0 1.11914,0 3.47867,0 6.11171,1.21868 7.83398,3.62305 1.07429,1.55174 1.65039,3.47086 1.65039,5.75586 0,1.2448 -0.15451,2.58233 -0.47851,4.04882 0,2e-5 -0.48047,1.91797 -0.48047,1.91797 0,-2e-5 -15.63178,0 -17.3711,0 -0.0171,0.2387 -0.0356,0.45463 -0.0527,0.69336 -0.0128,0.0895 0.006,0.226 0,0.32031 -5e-4,0.0154 0,0.0378 0,0.0527 0,0.2558 0.0356,0.50735 0.0527,0.74609 0.0852,0.97196 0.33843,1.78456 0.79883,2.39844 0.0877,0.11936 0.17122,0.26673 0.26758,0.37305 0.78101,0.83554 1.88526,1.27929 3.30273,1.27929 1.26188,-2e-5 2.38702,-0.34864 3.41016,-1.01367 0.98904,-0.63093 1.93592,-1.63883 2.77148,-3.03711 0,-3e-5 6.66016,0 6.66016,0 -1e-5,-3e-5 -0.63867,1.2793 -0.63867,1.2793 -1.26186,2.55785 -3.02292,4.55341 -5.22266,5.96875 -2.19974,1.41533 -4.82769,2.18359 -7.72656,2.18359 -3.76853,-1e-5 -6.57317,-1.21868 -8.3125,-3.62304 -1.12545,-1.53472 -1.65234,-3.4895 -1.65234,-5.8086 0,-0.35812 0.0186,-0.744 0.0527,-1.11914 0.0682,-0.88671 0.20605,-1.78244 0.42773,-2.77148 0.92084,-4.14368 2.70367,-7.48558 5.38086,-9.80469 2.39957,-2.08062 5.17639,-3.23385 8.20704,-3.46289 z m 75.61523,0 c 0.38084,-0.0293 0.73121,0 1.11914,0 3.54687,0 6.27346,1.20005 8.04687,3.57031 1.75641,2.37023 2.18308,5.56748 1.2793,9.5918 -0.69913,3.13763 -1.70861,5.67202 -3.08984,7.51367 -1.38126,1.84165 -3.14228,3.34601 -5.22266,4.36914 -2.06328,1.02314 -4.24949,1.54492 -6.44922,1.54492 -3.61507,-1e-5 -6.30559,-1.23574 -8.04492,-3.62304 -1.12546,-1.51764 -1.70508,-3.47245 -1.70508,-5.8086 2e-5,-1.26187 0.13748,-2.60292 0.47852,-4.10351 1.02315,-4.57001 3.11223,-8.05132 6.18164,-10.28516 2.25301,-1.62634 4.74034,-2.56461 7.40625,-2.76953 z m 93.62891,0 c 0.4496,-0.0277 0.86576,0 1.33203,0 2.14859,0 3.83631,0.21747 5.11523,0.74609 1.36418,0.54569 2.33128,1.31746 2.87695,2.23828 0.52864,0.86963 0.79883,1.93699 0.79883,3.25 10e-6,2e-5 -0.63867,3.89063 -0.63867,3.89063 3e-5,0 -1.17187,5.27539 -1.17187,5.27539 -1.00611,4.50176 -1.22813,6.18937 -1.2793,6.82031 -0.0512,0.85262 0.0269,1.68382 0.26562,2.45117 2e-5,-2e-5 0.42774,1.38477 0.42774,1.38477 2e-5,-2e-5 -6.28906,0 -6.28906,0 -2e-5,-2e-5 -0.26563,-0.79883 -0.26563,-0.79883 -0.10231,-0.37512 -0.0734,-0.85298 -0.10742,-1.27929 -1.19365,0.73324 -2.3886,1.38461 -3.46289,1.75976 -1.58584,0.54569 -3.23123,0.85156 -4.90235,0.85156 -2.89886,-1e-5 -5.04581,-0.75472 -6.34179,-2.23828 -0.98902,-1.09133 -1.43946,-2.42571 -1.43946,-3.94336 -2e-5,-0.57977 0.0765,-1.17962 0.2129,-1.81054 0.28987,-1.29597 0.81678,-2.49603 1.65234,-3.57032 0.81851,-1.05726 1.78757,-1.92766 2.8789,-2.55859 1.05726,-0.63092 2.23514,-1.07782 3.4629,-1.38477 -2e-5,0 3.7832,-0.64062 3.7832,-0.64062 2.91594,-0.34106 5.0933,-0.7642 6.66211,-1.22461 0.0341,-0.17052 0.10547,-0.37305 0.10547,-0.37305 0.24726,-1.09718 0.21688,-1.9229 -0.0527,-2.3457 -0.0198,-0.0273 -0.0851,-0.082 -0.10742,-0.10547 -0.0576,-0.0614 -0.14576,-0.15753 -0.21289,-0.21289 -0.64135,-0.50753 -1.73505,-0.74609 -3.19727,-0.74609 -1.65407,0 -2.87784,0.27022 -3.73046,0.79882 -0.83555,0.52863 -1.60894,1.49574 -2.29102,2.87696 -1e-5,-1e-5 -6.44727,0 -6.44727,0 2e-5,-1e-5 0.58594,-1.2793 0.58594,-1.2793 0.76733,-1.77345 1.68172,-3.24369 2.82422,-4.36914 1.1425,-1.12547 2.68608,-1.99746 4.47656,-2.61133 1.37216,-0.45297 2.87086,-0.75249 4.47657,-0.85156 z m 27.01562,0 c 0.24046,-0.0296 0.50362,0 0.74609,0 1.55173,0 3.00692,0.46553 4.3711,1.4375 2e-5,2e-5 0.79883,0.58594 0.79883,0.58594 10e-6,0 -3.30469,5.43554 -3.30469,5.43554 10e-6,-2e-5 -0.90625,-0.63867 -0.90625,-0.63867 -0.66503,-0.42629 -1.3449,-0.63867 -2.07813,-0.63867 -0.64801,2e-5 -1.28701,0.22941 -1.91797,0.63867 -0.64796,0.4263 -1.11862,0.99045 -1.54492,1.75781 -0.69916,1.31304 -1.24152,2.78524 -1.59961,4.3711 -2e-5,1e-5 -2.92968,13.10742 -2.92968,13.10742 2e-5,-2e-5 -6.18164,0 -6.18164,0 0,-2e-5 5.70117,-25.57812 5.70117,-25.57812 -10e-6,1e-5 5.75586,0 5.75586,0 0,1e-5 -0.14469,0.77652 -0.21289,1.0664 0.27282,-0.20461 0.54303,-0.4852 0.79882,-0.63867 0.81263,-0.4929 1.64507,-0.80071 2.50391,-0.90625 z m 18.2793,0 c 0.37185,-0.0282 0.73867,0 1.11914,0 3.47866,0 6.12679,1.21868 7.83203,3.62305 1.09135,1.55174 1.65234,3.47086 1.65234,5.75586 -2e-5,1.26185 -0.20921,2.61802 -0.5332,4.10156 l -0.42578,1.86523 c -1e-5,-2e-5 -15.65079,0 -17.37305,0 -0.0341,0.35808 -0.10547,0.74242 -0.10547,1.06641 0,1.33009 0.28884,2.37717 0.85157,3.14453 0.0877,0.11936 0.22359,0.26673 0.32031,0.37305 0.056,0.0597 0.15385,0.15748 0.21289,0.21289 0.76235,0.69302 1.80091,1.0664 3.0918,1.0664 1.26189,-2e-5 2.36997,-0.34864 3.41015,-1.01367 0.98905,-0.63093 1.91889,-1.63883 2.77149,-3.03711 -2e-5,-3e-5 6.66015,0 6.66015,0 0,-3e-5 -0.63867,1.2793 -0.63867,1.2793 -1.26187,2.55785 -3.03997,4.55341 -5.22266,5.96875 -2.21677,1.41533 -4.81062,2.18359 -7.72656,2.18359 -3.76851,-1e-5 -6.52044,-1.21868 -8.25976,-3.62304 -1.7223,-2.35323 -2.13034,-5.60669 -1.22657,-9.69922 0.92081,-4.16073 2.70562,-7.48558 5.38282,-9.80469 2.41475,-2.08062 5.17918,-3.23385 8.20703,-3.46289 z m -93.3086,0.47852 c 2e-5,1e-5 6.3418,0 6.3418,0 2e-5,1e-5 0.78178,15.17873 0.79883,15.40039 0.25578,-0.54356 0.4551,-0.99958 0.48047,-1.06446 1e-5,1e-5 6.98047,-14.33593 6.98047,-14.33593 2e-5,1e-5 5.80859,0 5.80859,0 -10e-6,1e-5 0.5332,14.99677 0.5332,15.08203 0.17055,-0.30691 7.93946,-15.08204 7.93946,-15.08203 -2e-5,1e-5 6.28711,-10e-6 6.28711,0 -10e-6,1e-5 -13.85352,25.57812 -13.85352,25.57812 2e-5,-2e-5 -5.70313,0 -5.70313,0 0,-2e-5 -0.55182,-13.86988 -0.58593,-14.6543 -2.35323,4.8258 -7.14063,14.6543 -7.14063,14.6543 0,-2e-5 -5.86133,0 -5.86133,0 0,-2e-5 -2.02539,-25.57812 -2.02539,-25.57812 z m -148.88672,4.8496 c -1.46893,0.062 -2.80384,0.59246 -4.05078,1.59961 -0.989017,0.78441 -1.65497,1.86052 -2.18359,3.03711 0,2e-5 10.49805,0 10.49805,0 0.0171,-0.18756 0.0527,-0.4154 0.0527,-0.58593 -2e-5,-0.97195 -0.17354,-1.72672 -0.48047,-2.23829 -0.75028,-1.22777 -1.86155,-1.8125 -3.51562,-1.8125 -0.0991,0 -0.22239,-0.004 -0.32032,0 z m 27.76368,0 c -1.46892,0.062 -2.80383,0.59246 -4.05078,1.59961 -0.98904,0.78441 -1.63988,1.86052 -2.18555,3.03711 0,2e-5 10.49805,0 10.49805,0 0.017,-0.18756 0.0547,-0.4154 0.0547,-0.58593 -1e-5,-0.97195 -0.15647,-1.72672 -0.48047,-2.23829 -0.14894,-0.24939 -0.35075,-0.49801 -0.5332,-0.69336 -0.71199,-0.73571 -1.69214,-1.11914 -2.98437,-1.11914 -0.0991,0 -0.22042,-0.004 -0.31836,0 z m 214.75,0 c -1.51056,0.0465 -2.92047,0.55891 -4.20899,1.59961 -0.97198,0.78441 -1.63987,1.86052 -2.18554,3.03711 2e-5,2e-5 10.44531,0 10.44531,0 0.017,-0.18756 0.0527,-0.4154 0.0527,-0.58593 -1e-5,-0.97195 -0.15451,-1.72672 -0.47851,-2.23829 -0.73324,-1.21072 -1.86352,-1.79544 -3.51758,-1.8125 -0.049,5.3e-4 -0.0587,-0.001 -0.10742,0 z m -139.61524,0.10743 c -1.40963,0.16739 -2.72039,0.8101 -3.94336,1.91797 -1.46648,1.33009 -2.5287,3.41918 -3.14258,6.18164 -0.25578,1.15955 -0.37304,2.1504 -0.37304,3.0371 2e-5,1.21071 0.23098,2.16077 0.6914,2.87696 0.12257,0.18384 0.28659,0.37842 0.42774,0.5332 0.75804,0.80488 1.81517,1.22656 3.14258,1.22656 1.72226,-2e-5 3.24002,-0.64257 4.68945,-1.97265 1.46652,-1.34714 2.5136,-3.45645 3.14453,-6.28711 0.5798,-2.59195 0.49819,-4.5281 -0.32031,-5.75586 -0.7844,-1.19366 -1.92978,-1.75781 -3.51563,-1.75781 -0.26911,0 -0.53975,-0.031 -0.80078,0 z m 96.29297,9.32421 c -1.44941,0.39218 -3.07409,0.72378 -5.22265,1.01368 -1.6029,0.23874 -2.74512,0.4903 -3.41016,0.74609 -0.57976,0.23872 -1.04725,0.56835 -1.43945,1.01172 -0.37516,0.42627 -0.62674,0.87319 -0.7461,1.38477 -0.0341,0.20464 -0.0527,0.4154 -0.0527,0.58593 0,0.0138 -3.1e-4,0.041 0,0.0547 0.002,0.0406 -0.004,0.12101 0,0.16016 0.0107,0.0774 0.0316,0.19357 0.0527,0.26562 0.008,0.0237 0.0439,0.0842 0.0527,0.10742 0.0187,0.0458 0.0315,0.11445 0.0547,0.15821 0.0243,0.0433 0.0768,0.11878 0.10547,0.16015 0.0446,0.0614 0.10579,0.15534 0.16016,0.21289 0.42631,0.47746 1.2781,0.69336 2.50586,0.69336 1.34715,1e-5 2.64229,-0.25473 3.83594,-0.85156 1.17662,-0.57977 2.12507,-1.44509 2.82421,-2.45117 0.51159,-0.7162 0.92121,-1.81959 1.2793,-3.25196 z"/>
  <path id="path15" style="fill:#bd0000;fill-opacity:1;stroke-width:1.70522" d="m 661.85381,357.64893 c 0,0 4.6041,-19.47363 4.6041,-19.47363 1.9269,-8.67958 6.73562,-14.63081 11.04984,-14.63081 3.1035,0 3.95611,2.26795 3.80264,5.23503 -0.0853,1.5347 -0.4263,3.25698 -0.7844,4.9622 0,0 -5.69544,23.90721 -5.69544,23.90721 0,0 12.2776,0 12.2776,0 0,0 4.6041,-19.55889 4.6041,-19.55889 2.11447,-8.95242 6.65036,-14.54555 10.87931,-14.54555 2.91593,0 4.12664,2.08037 3.99022,5.04746 -0.0853,1.72227 -0.44336,3.61507 -0.88671,5.33734 0,0 -5.52492,23.71964 -5.52492,23.71964 0,0 12.36286,0 12.36286,0 0,0 5.95122,-25.25434 5.95122,-25.25434 0.46041,-2.26794 0.98903,-5.79775 1.07429,-7.60529 0.37515,-7.50297 -3.29108,-11.47614 -9.90734,-11.47614 -5.66134,0 -11.1692,2.55783 -15.347,7.94633 -0.15347,-3.8879 -2.93298,-7.94633 -9.82208,-7.94633 -5.57607,0 -10.89636,2.52373 -15.15942,8.23622 0,0 -0.17052,0 -0.17052,0 0,0 1.1425,-6.531 1.1425,-6.531 0,0 -10.94753,0 -10.94753,0 -0.71619,3.64918 -1.58585,8.0657 -2.91593,13.21547 0,0 -6.85499,29.41508 -6.85499,29.41508 0,0 12.2776,0 12.2776,0 z m -42.88633,0 c 14.83543,0 26.27747,-11.23741 27.07892,-26.53325 0.49452,-10.12902 -5.81481,-17.80252 -17.46147,-17.80252 -15.3811,0 -26.41389,12.44812 -27.18124,27.48818 -0.52862,10.94752 6.531,16.84759 17.56379,16.84759 z m 1.99511,-10.23133 c -4.33127,0 -6.71858,-2.76246 -6.4628,-6.8891 0.34105,-6.87204 4.58705,-16.98401 11.90245,-16.98401 5.04746,0 6.59921,3.87086 6.39459,7.6735 -0.37515,7.50298 -4.94515,16.19961 -11.83424,16.19961 z m -31.00094,-52.86188 c 0,0 -4.79167,19.37132 -4.79167,19.37132 -1.73933,-0.71619 -4.00727,-0.61388 -5.7807,-0.61388 -16.33603,0 -27.89743,13.98282 -28.66478,29.12519 -0.51157,10.67469 5.18387,15.21058 12.51633,15.21058 5.13271,0 10.53827,-2.26794 14.6308,-8.1339 0,0 0.17052,0 0.17052,0 0,0 -0.97197,8.1339 -0.97197,8.1339 0,0 11.5614,0 11.5614,0 0.52862,-5.11566 1.63701,-11.2033 2.88183,-16.76233 0,0 11.06689,-46.33088 11.06689,-46.33088 0,0 -12.61865,0 -12.61865,0 z m -9.95849,41.64152 c -1.99511,8.40675 -6.70152,11.22036 -10.41891,11.22036 -3.70033,0 -5.76365,-2.57488 -5.50787,-7.16193 0.42631,-8.49201 6.25817,-16.71118 13.84641,-16.71118 2.13152,0 3.95611,0.324 4.96219,0.80146 0,0 -2.88182,11.85129 -2.88182,11.85129 z m -40.58429,9.94144 c -3.52981,1.72228 -7.55413,1.27892 -12.22644,1.27892 -3.71738,0 -6.56511,-0.64798 -8.13391,-1.90985 -0.81851,-1.38123 -1.1766,-3.52981 -1.10839,-4.91104 17.29095,0.46041 28.17026,-3.52981 28.73299,-14.44323 0.40925,-8.23622 -5.61018,-12.84032 -14.35797,-12.84032 -15.63689,0 -25.86822,13.77819 -26.53326,27.04482 -0.56272,11.57846 5.43966,17.29095 17.80252,17.29095 4.77462,0 11.08394,-0.54567 16.25077,-2.09742 0,0 -0.42631,-9.41283 -0.42631,-9.41283 z m -4.65525,-19.9852 c -0.20463,4.05843 -5.21798,4.29716 -15.10827,4.2119 1.09134,-3.56391 4.68936,-6.82089 10.60648,-6.82089 2.91593,0 4.6041,1.1084 4.50179,2.60899 z m -40.55019,19.9852 c -3.52981,1.72228 -7.55413,1.27892 -12.24349,1.27892 -3.70033,0 -6.56511,-0.64798 -8.13391,-1.90985 -0.81851,-1.38123 -1.15955,-3.52981 -1.09134,-4.91104 17.2739,0.46041 28.17027,-3.52981 28.71594,-14.44323 0.40925,-8.23622 -5.61018,-12.84032 -14.35797,-12.84032 -15.61984,0 -25.85117,13.77819 -26.5162,27.04482 -0.57978,11.57846 5.43965,17.29095 17.80251,17.29095 4.75757,0 11.08395,-0.54567 16.23372,-2.09742 0,0 -0.40926,-9.41283 -0.40926,-9.41283 z m -4.6723,-19.9852 c -0.20463,4.05843 -5.21798,4.29716 -15.09122,4.2119 1.07429,-3.56391 4.68936,-6.82089 10.60648,-6.82089 2.91593,0 4.58705,1.1084 4.48474,2.60899 z m -51.90696,31.49545 c 0,0 3.81969,-16.02908 3.81969,-16.02908 2.01217,-8.67958 6.25817,-16.37014 14.28976,-16.37014 0.7162,0 1.41534,0.3581 1.94396,0.44336 0,0 3.1035,-12.29465 3.1035,-12.29465 -0.71619,0 -1.50059,-0.0853 -2.38731,-0.0853 -5.91712,0 -10.87932,4.16074 -14.18745,10.12902 0,0 -0.34104,0 -0.34104,0 0.49451,-2.91593 0.92082,-5.67839 1.24481,-8.4238 0,0 -10.96458,0 -10.96458,0 -0.61388,3.54686 -1.6029,10.48712 -3.08645,16.74528 0,0 -6.24111,25.88527 -6.24111,25.88527 0,0 12.80622,0 12.80622,0 z m -57.05673,0 c 0,0 12.72096,0 12.72096,0 0,0 5.72954,-23.87311 5.72954,-23.87311 0,0 20.65024,0 20.65024,0 0,0 2.66015,-10.23133 2.66015,-10.23133 0,0 -20.75255,0 -20.75255,0 0,0 3.44454,-15.347 3.44454,-15.347 0,0 22.08263,0 22.08263,0 0,0 2.66014,-11.93655 2.66014,-11.93655 0,0 -34.87179,0 -34.87179,0 0,0 -14.32386,61.38799 -14.32386,61.38799 z m -54.73762,10e-6 c 0,0 4.50178,-19.2008 4.50178,-19.2008 2.33616,-9.77092 7.36656,-13.19842 11.51025,-13.19842 3.27403,0 4.22895,1.39828 4.07548,3.4275 -0.0853,1.63701 -0.34104,3.35928 -0.68209,4.89398 0,0 -5.72954,24.07774 -5.72954,24.07774 0,0 12.72095,0 12.72095,0 0,0 6.03649,-25.25434 6.03649,-25.25434 0.46041,-2.18268 0.97198,-5.43966 1.07429,-7.41771 0.37515,-7.69056 -3.4616,-10.48712 -10.52122,-10.48712 -5.66134,0 -11.16921,2.62604 -15.51752,8.32148 0,0 -0.17052,0 -0.17052,0 0,0 1.15955,-7.79286 1.15955,-7.79286 0,0 -11.22036,0 -11.22036,0 -0.73325,3.64917 -1.67112,8.0657 -3.00119,13.21547 0,0 -6.95731,29.41508 -6.95731,29.41508 0,0 12.72096,0 12.72096,0 z m -24.38468,-10e-6 c 0,0 10.3166,-42.63055 10.3166,-42.63055 0,0 -12.6357,0 -12.6357,0 0,0 -10.3848,42.63055 -10.3848,42.63055 0,0 12.7039,0 12.7039,0 z m 5.91712,-47.74621 c 4.33127,0 8.18507,-3.58097 8.4238,-9.71977 0.20463,-4.16074 -2.48962,-5.62723 -6.46279,-5.62723 -4.14369,0 -7.92928,2.69425 -8.15096,6.71857 -0.20463,4.05843 2.48962,8.62843 6.18995,8.62843 z m -73.95548,45.73405 c 2.45552,1.90985 7.60529,1.9269 12.97674,2.01216 11.47614,0.0853 20.13867,-4.92809 20.65024,-14.13629 0.28989,-6.1388 -4.46768,-9.77092 -9.12294,-12.20939 -3.35929,-1.61996 -5.04746,-3.17171 -4.9622,-4.97925 0.11937,-2.43846 2.40437,-2.77951 5.76365,-2.77951 3.7856,0 6.82089,0.46041 8.56022,0.80146 0,0 3.44455,-9.24231 3.44455,-9.24231 -1.96101,-1.1766 -5.88302,-1.79048 -10.91342,-1.79048 -11.1351,0 -19.28606,5.88302 -19.74647,14.81838 -0.27284,5.52492 3.70033,9.2423 8.50905,11.76603 3.88791,1.99511 5.21798,3.52981 5.11567,5.69544 -0.11937,2.18269 -2.06332,1.82459 -5.59313,1.82459 -4.14369,0 -8.73074,-0.54567 -11.15215,-0.92082 0,0 -3.52981,9.13999 -3.52981,9.13999 z m -8.33853,2.01216 c 0.10231,-5.40555 1.39828,-13.89756 2.74541,-19.47363 0,0 5.47376,-23.15692 5.47376,-23.15692 -3.47865,-1.1766 -8.90126,-1.70522 -14.11924,-1.70522 -21.17886,0 -31.68302,15.68804 -32.41627,30.38706 -0.46041,9.22525 4.53589,13.94871 12.3117,13.94871 5.03041,0 10.7088,-2.43847 15.12532,-9.77092 0,0 0.18758,0 0.18758,0 -0.34105,3.52981 -0.7503,6.95731 -0.97198,9.77092 0,0 11.66372,0 11.66372,0 z m -8.74779,-24.35057 c -2.48962,10.84521 -7.57119,14.11924 -11.35678,14.11924 -3.52981,0 -5.06451,-2.50668 -4.85988,-6.15585 0.40925,-8.23622 6.9232,-17.71726 15.14237,-17.71726 1.33007,0 2.37026,-0.23873 3.34223,-0.47746 0,0 -2.26794,10.23133 -2.26794,10.23133 z m -57.07378,12.84032 c -3.52981,1.72228 -7.55413,1.27892 -12.22644,1.27892 -3.71738,0 -6.56511,-0.64798 -8.13391,-1.90985 -0.81851,-1.38123 -1.1766,-3.52981 -1.10839,-4.91104 17.29095,0.46041 28.17026,-3.52981 28.73299,-14.44323 0.40925,-8.23622 -5.61018,-12.84032 -14.35797,-12.84032 -15.63689,0 -25.86822,13.77819 -26.53326,27.04482 -0.56272,11.57846 5.43966,17.29095 17.80252,17.29095 4.77462,0 11.08394,-0.54567 16.25077,-2.09742 0,0 -0.42631,-9.41283 -0.42631,-9.41283 z m -4.65525,-19.9852 c -0.20463,4.05843 -5.21798,4.29716 -15.10827,4.2119 1.09134,-3.56391 4.68936,-6.82089 10.60648,-6.82089 2.91593,0 4.6041,1.1084 4.50179,2.60899 z m -40.55019,19.9852 c -3.52981,1.72228 -7.55413,1.27892 -12.24349,1.27892 -3.700332,0 -6.565105,-0.64798 -8.13391,-1.90985 -0.818506,-1.38123 -1.159551,-3.52981 -1.091342,-4.91104 17.273902,0.46041 28.170272,-3.52981 28.715942,-14.44323 0.40925,-8.23622 -5.61018,-12.84032 -14.35797,-12.84032 -15.619836,0 -25.851168,13.77819 -26.516205,27.04482 -0.579775,11.57846 5.422606,17.29095 17.802518,17.29095 4.757567,0 11.066887,-0.54567 16.233717,-2.09742 0,0 -0.40926,-9.41283 -0.40926,-9.41283 z m -4.6723,-19.9852 c -0.20463,4.05843 -5.21798,4.29716 -15.09122,4.2119 1.07429,-3.56391 4.689361,-6.82089 10.60648,-6.82089 2.91593,0 4.58705,1.1084 4.48474,2.60899 z m -51.906963,31.49545 c 0,0 3.819697,-16.02908 3.819697,-16.02908 2.012162,-8.67958 6.258165,-16.37014 14.289761,-16.37014 0.716193,0 1.415334,0.3581 1.943953,0.44336 0,0 3.103504,-12.29465 3.103504,-12.29465 -0.716193,0 -1.500595,-0.0853 -2.387311,-0.0853 -5.91712,0 -10.879316,4.16074 -14.187447,10.12902 0,0 -0.341044,0 -0.341044,0 0.494514,-2.91593 0.92082,-5.67839 1.244812,-8.4238 0,0 -10.964578,0 -10.964578,0 -0.630932,3.54686 -1.602908,10.48712 -3.086451,16.74528 0,0 -6.241113,25.88527 -6.241113,25.88527 0,0 12.806217,0 12.806217,0 z m -57.05672812,0 c 0,0 12.72095612,0 12.72095612,0 0,0 5.712494,-23.87311 5.712494,-23.87311 0,0 20.66729,0 20.66729,0 0,0 2.660147,-10.23133 2.660147,-10.23133 0,0 -20.752552,0 -20.752552,0 0,0 3.444548,-15.347 3.444548,-15.347 0,0 22.082625,0 22.082625,0 0,0 2.660147,-11.93655 2.660147,-11.93655 0,0 -34.87179,0 -34.87179,0 0,0 -14.32386512,61.38799 -14.32386512,61.38799 z"/>
</svg>